<svg width="24" height="24" viewBox="0 0 24 24" fill="none" xmlns="http://www.w3.org/2000/svg">
<path d="M17 5C20.0239 5 22.5 7.47614 22.5 10.5C22.5 11.8495 21.8786 13.2457 20.8779 14.6104C19.881 15.9698 18.5412 17.2525 17.1836 18.3633C15.8284 19.472 14.4704 20.3976 13.4502 21.0469C12.9407 21.3711 12.5168 21.6258 12.2207 21.7988C12.1368 21.8479 12.0623 21.8892 12 21.9248C11.938 21.889 11.8646 21.8469 11.7812 21.7979C11.4851 21.6236 11.0604 21.3673 10.5508 21.041C9.53042 20.3878 8.17273 19.4567 6.81738 18.3447C5.45951 17.2307 4.11921 15.9463 3.12207 14.5889C2.12084 13.2258 1.5 11.8362 1.5 10.5C1.5 7.47614 3.97614 5 7 5C8.92993 5 10.6204 5.96371 11.5781 7.46875L12 8.13086L12.4219 7.46875C13.3796 5.96371 15.0701 5 17 5Z" stroke="white"/>
</svg>
