<svg width="30" height="30" viewBox="0 0 30 30" fill="none" xmlns="http://www.w3.org/2000/svg">
<path d="M21.9281 4.61248C22.4906 4.37811 23.1328 4.50936 23.5641 4.93592L26.5641 7.93592C26.8453 8.21717 27.0047 8.59686 27.0047 8.9953C27.0047 9.39373 26.8453 9.77342 26.5641 10.0547L23.5641 13.0547C23.1328 13.4859 22.4906 13.6125 21.9281 13.3781C21.3656 13.1437 21 12.6047 21 12V10.5H19.5C19.0266 10.5 18.5812 10.7203 18.3 11.1L16.7812 13.125L14.9062 10.6265L15.9 9.29998C16.7484 8.16561 18.0844 7.49998 19.5 7.49998H21V5.99998C21 5.3953 21.3656 4.84686 21.9281 4.61248ZM10.2188 16.875L12.0938 19.3734L11.1 20.7C10.2516 21.8344 8.91563 22.5 7.5 22.5H4.5C3.67031 22.5 3 21.8297 3 21C3 20.1703 3.67031 19.5 4.5 19.5H7.5C7.97344 19.5 8.41875 19.2797 8.7 18.9L10.2188 16.875ZM23.5594 25.0594C23.1281 25.4906 22.4859 25.6172 21.9234 25.3828C21.3609 25.1484 21 24.6047 21 24V22.5H19.5C18.0844 22.5 16.7484 21.8344 15.9 20.7L8.7 11.1C8.41875 10.7203 7.97344 10.5 7.5 10.5H4.5C3.67031 10.5 3 9.82967 3 8.99998C3 8.1703 3.67031 7.49998 4.5 7.49998H7.5C8.91563 7.49998 10.2516 8.16561 11.1 9.29998L18.3 18.9C18.5812 19.2797 19.0266 19.5 19.5 19.5H21V18C21 17.3953 21.3656 16.8469 21.9281 16.6125C22.4906 16.3781 23.1328 16.5094 23.5641 16.9359L26.5641 19.9359C26.8453 20.2172 27.0047 20.5969 27.0047 20.9953C27.0047 21.3937 26.8453 21.7734 26.5641 22.0547L23.5641 25.0547L23.5594 25.0594Z" fill="white"/>
</svg>
