<svg width="30" height="30" viewBox="0 0 30 30" fill="none" xmlns="http://www.w3.org/2000/svg">
<path d="M8.56255 23.75L9.62505 24.8125C9.87505 25.0625 9.99505 25.3542 9.98505 25.6875C9.97505 26.0208 9.85505 26.3125 9.62505 26.5625C9.37505 26.8125 9.07838 26.9429 8.73505 26.9538C8.39171 26.9646 8.09463 26.8446 7.8438 26.5938L4.62505 23.375C4.50005 23.25 4.4113 23.1146 4.3588 22.9688C4.3063 22.8229 4.28088 22.6667 4.28255 22.5C4.28421 22.3333 4.31046 22.1771 4.3613 22.0313C4.41213 21.8854 4.50046 21.75 4.6263 21.625L7.84505 18.4063C8.09505 18.1563 8.39213 18.0367 8.7363 18.0475C9.08046 18.0583 9.37713 18.1883 9.6263 18.4375C9.85546 18.6875 9.97546 18.9792 9.9863 19.3125C9.99713 19.6458 9.87713 19.9375 9.6263 20.1875L8.5638 21.25H21.25V17.5C21.25 17.1458 21.37 16.8492 21.61 16.61C21.85 16.3708 22.1467 16.2508 22.5 16.25C22.8534 16.2492 23.1505 16.3692 23.3913 16.61C23.6321 16.8508 23.7517 17.1475 23.75 17.5V21.25C23.75 21.9375 23.5055 22.5263 23.0163 23.0163C22.5271 23.5063 21.9384 23.7508 21.25 23.75H8.56255ZM21.4375 8.75002H8.75005V12.5C8.75005 12.8542 8.63005 13.1513 8.39005 13.3913C8.15005 13.6313 7.85338 13.7508 7.50005 13.75C7.14671 13.7492 6.85005 13.6292 6.61005 13.39C6.37005 13.1508 6.25005 12.8542 6.25005 12.5V8.75002C6.25005 8.06252 6.49505 7.47418 6.98505 6.98501C7.47505 6.49585 8.06338 6.25085 8.75005 6.25001H21.4375L20.375 5.18752C20.125 4.93751 20.005 4.64585 20.015 4.31251C20.025 3.97918 20.145 3.68751 20.375 3.43751C20.625 3.18751 20.9217 3.05751 21.265 3.04751C21.6084 3.03751 21.9055 3.1571 22.1563 3.40626L25.375 6.62502C25.5 6.75002 25.5888 6.88543 25.6413 7.03126C25.6938 7.1771 25.7196 7.33335 25.7188 7.50001C25.718 7.66668 25.6921 7.82293 25.6413 7.96876C25.5905 8.1146 25.5017 8.25001 25.375 8.37501L22.1563 11.5938C21.9063 11.8438 21.6096 11.9638 21.2663 11.9538C20.923 11.9438 20.6259 11.8133 20.375 11.5625C20.1459 11.3125 20.0259 11.0208 20.015 10.6875C20.0042 10.3542 20.1242 10.0625 20.375 9.81252L21.4375 8.75002Z" fill="white"/>
</svg>
